<?xml version="1.0" standalone="no"?>
<!DOCTYPE svg PUBLIC "-//W3C//DTD SVG 20010904//EN"
 "http://www.w3.org/TR/2001/REC-SVG-20010904/DTD/svg10.dtd">
<svg version="1.0" xmlns="http://www.w3.org/2000/svg"
 width="70.000000pt" height="70.000000pt" viewBox="0 0 70.000000 70.000000"
 preserveAspectRatio="xMidYMid meet">
<metadata>
Created by potrace 1.11, written by Peter Selinger 2001-2013
</metadata>
<g transform="translate(0.000000,70.000000) scale(0.100000,-0.100000)"
fill="#000000" stroke="none">
<path d="M179 628 c-1 -2 -3 -59 -4 -128 -1 -69 -3 -126 -4 -128 0 -2 -8 4
-18 13 -17 18 -26 135 -9 134 13 -1 25 22 19 38 -3 7 -20 13 -39 13 l-34 0 0
-90 c0 -98 9 -118 63 -146 15 -8 25 -19 22 -24 -3 -5 0 -12 6 -15 5 -4 8 -13
5 -20 -4 -11 79 -101 94 -102 29 -1 50 -18 50 -39 0 -22 -4 -24 -50 -24 l-50
0 0 -34 0 -33 -55 1 c-50 2 -55 0 -55 -20 0 -22 0 -22 231 -23 l230 -1 -3 23
c-3 20 -8 22 -55 21 l-53 -1 0 34 0 33 -50 0 c-46 0 -50 2 -50 24 0 22 21 38
51 41 3 0 21 14 40 30 31 27 64 83 64 109 0 5 7 12 16 15 8 3 27 16 42 27 26
21 27 26 27 118 l0 96 -44 0 c-35 0 -43 3 -43 18 0 43 3 42 -173 42 -93 0
-171 -1 -171 -2z m389 -142 c2 -21 0 -46 -4 -55 -4 -9 -8 -22 -10 -30 -4 -22
-24 -38 -25 -20 -6 56 -2 135 6 141 19 14 30 2 33 -36z"/>
</g>
</svg>
